<?xml version="1.0" encoding="UTF-8"?>
<svg id="Layer_1" data-name="Layer 1" xmlns="http://www.w3.org/2000/svg" viewBox="0 0 215 215">
  <defs>
    <style>
      .cls-1 {
        fill: #db3246;
      }

      .cls-2 {
        fill: #fff;
      }
    </style>
  </defs>
  <rect class="cls-1" x="0" y="0" width="215" height="215" rx="20" ry="20" transform="translate(215 0) rotate(90)"/>
  <path class="cls-2" d="M145.49,130.72c0,.31.03.61.03.92,0,19.89-14.25,31.6-37.95,31.6s-38.09-11.28-38.09-32.44h20.45c0,9.17,7.76,14.81,17.63,14.81,10.72,0,17.49-4.65,17.49-13.82,0-.36-.03-.71-.08-1.06h20.5ZM109.79,119.55h-4.33c-22.4-.76-37.2-14.21-37.2-34.09s15.69-33.69,39.21-33.69h39.21v14.52h-5.85c3.8,5.26,5.9,11.74,5.9,19.11,0,19.81-14.7,33.3-36.95,34.15ZM121.27,96.94c2.95-2.81,4.35-6.79,4.35-11.48,0-9.15-5.66-15.54-18.15-15.54-6.24,0-10.77,1.6-13.75,4.33-2.94,2.74-4.35,6.6-4.35,11.15,0,9.44,5.66,15.98,18.15,15.98,6.23,0,10.77-1.63,13.75-4.43Z"/>
</svg>